
            <svg data-logo="logo" xmlns="http://www.w3.org/2000/svg" viewBox="0 0 251 42">
                <g id="logogram" transform="translate(0, 0.5)"><path d="M37.4552 2.39882C38.3804 1.43634 39.6368 0.89563 40.9453 0.89563C46.8318 0.89563 52.3794 0.895633 57.8425 0.895644C68.8303 0.895667 74.3325 14.7158 66.5629 22.7986L49.639 40.4046C48.862 41.2129 47.5335 40.6405 47.5335 39.4974V23.9906L49.4894 21.9559C51.0433 20.3393 49.9427 17.5753 47.7452 17.5753H22.8667L37.4552 2.39882Z" fill="#3A04FF"/><path d="M32.945 39.1672C32.0198 40.1296 30.7634 40.6703 29.455 40.6703C23.5684 40.6703 18.0208 40.6703 12.5577 40.6703C1.56991 40.6703 -3.93229 26.8501 3.83728 18.7674L20.7612 1.16133C21.5382 0.353051 22.8667 0.925506 22.8667 2.06858L22.8667 17.5753L20.9109 19.6101C19.3569 21.2266 20.4575 23.9907 22.6551 23.9907L47.5335 23.9906L32.945 39.1672Z" fill="#3A04FF"/></g>
                <g id="logotype" transform="translate(77, 0)"><path fill="#111111" d="M15.07 13.86L7.28 13.86L7.28 9.54L28.08 9.54L28.08 13.86L20.30 13.86L20.30 35L15.07 35L15.07 13.86ZM34.40 35L29.27 35L29.27 15.89L34.23 15.89L34.23 19.23L34.44 19.23Q34.97 17.45 36.20 16.54Q37.44 15.64 39.05 15.64L39.05 15.64Q39.44 15.64 39.90 15.68Q40.35 15.72 40.71 15.81L40.71 15.81L40.71 20.39Q40.37 20.27 39.72 20.20Q39.07 20.13 38.49 20.13L38.49 20.13Q37.32 20.13 36.38 20.64Q35.44 21.14 34.92 22.04Q34.40 22.93 34.40 24.13L34.40 24.13L34.40 35ZM46.38 35L41.25 35L41.25 15.89L46.38 15.89L46.38 35ZM43.82 13.40L43.82 13.40Q42.65 13.40 41.83 12.63Q41.01 11.86 41.01 10.77L41.01 10.77Q41.01 9.67 41.83 8.90Q42.65 8.13 43.82 8.13L43.82 8.13Q44.98 8.13 45.81 8.90Q46.64 9.66 46.64 10.77L46.64 10.77Q46.64 11.86 45.81 12.63Q44.98 13.40 43.82 13.40ZM53.59 42.14L48.46 42.14L48.46 15.89L53.50 15.89L53.50 19.11L53.74 19.11Q54.10 18.35 54.76 17.55Q55.42 16.75 56.49 16.20Q57.57 15.65 59.19 15.65L59.19 15.65Q61.31 15.65 63.07 16.75Q64.83 17.84 65.89 20.03Q66.94 22.22 66.94 25.48L66.94 25.48Q66.94 28.66 65.91 30.86Q64.89 33.05 63.13 34.19Q61.36 35.32 59.16 35.32L59.16 35.32Q57.61 35.32 56.53 34.79Q55.45 34.27 54.78 33.49Q54.10 32.71 53.74 31.94L53.74 31.94L53.59 31.94L53.59 42.14ZM57.59 31.21L57.59 31.21Q58.92 31.21 59.84 30.47Q60.75 29.74 61.22 28.44Q61.69 27.14 61.69 25.46L61.69 25.46Q61.69 23.79 61.22 22.51Q60.75 21.23 59.84 20.49Q58.94 19.76 57.59 19.76L57.59 19.76Q56.27 19.76 55.35 20.47Q54.43 21.17 53.95 22.45Q53.47 23.72 53.47 25.46L53.47 25.46Q53.47 27.19 53.96 28.48Q54.44 29.77 55.37 30.49Q56.29 31.21 57.59 31.21ZM79.65 35.34L79.65 35.34Q76.08 35.34 73.39 33.76Q70.69 32.18 69.18 29.25Q67.67 26.32 67.67 22.30L67.67 22.30Q67.67 18.17 69.24 15.24Q70.81 12.30 73.50 10.75Q76.18 9.19 79.53 9.19L79.53 9.19Q81.68 9.19 83.54 9.82Q85.39 10.44 86.84 11.59Q88.28 12.73 89.19 14.30Q90.11 15.86 90.38 17.74L90.38 17.74L85.08 17.74Q84.81 16.83 84.32 16.11Q83.84 15.38 83.14 14.87Q82.45 14.36 81.56 14.09Q80.67 13.83 79.61 13.83L79.61 13.83Q77.65 13.83 76.15 14.81Q74.64 15.79 73.80 17.67Q72.97 19.55 72.97 22.25L72.97 22.25Q72.97 24.95 73.80 26.84Q74.62 28.73 76.13 29.72Q77.63 30.71 79.68 30.71L79.68 30.71Q81.53 30.71 82.84 30.04Q84.16 29.38 84.87 28.15Q85.58 26.92 85.58 25.24L85.58 25.24L86.67 25.40L80.04 25.40L80.04 21.43L90.64 21.43L90.64 24.61Q90.64 27.96 89.22 30.36Q87.80 32.76 85.32 34.05Q82.84 35.34 79.65 35.34ZM100.87 35.38L100.87 35.38Q97.95 35.38 95.83 34.18Q93.71 32.98 92.58 30.78Q91.44 28.57 91.44 25.55L91.44 25.55Q91.44 22.59 92.57 20.37Q93.69 18.15 95.76 16.90Q97.83 15.65 100.62 15.65L100.62 15.65Q102.50 15.65 104.12 16.25Q105.74 16.85 106.97 18.06Q108.20 19.26 108.90 21.07Q109.59 22.88 109.59 25.34L109.59 25.34L109.59 26.78L93.54 26.78L93.54 23.57L107.08 23.57L104.68 24.42Q104.68 22.93 104.23 21.83Q103.78 20.73 102.88 20.12Q101.98 19.52 100.65 19.52L100.65 19.52Q99.33 19.52 98.40 20.13Q97.47 20.75 96.99 21.80Q96.51 22.85 96.51 24.20L96.51 24.20L96.51 26.47Q96.51 28.13 97.07 29.26Q97.63 30.39 98.63 30.95Q99.63 31.51 100.96 31.51L100.96 31.51Q101.86 31.51 102.60 31.26Q103.33 31.00 103.85 30.50Q104.38 29.99 104.65 29.26L104.65 29.26L109.30 30.13Q108.84 31.70 107.69 32.89Q106.55 34.08 104.83 34.73Q103.11 35.38 100.87 35.38ZM115.94 23.94L115.94 23.94L115.94 35L110.82 35L110.82 15.89L115.65 15.89L115.74 20.66L115.43 20.66Q116.18 18.27 117.71 16.96Q119.24 15.65 121.67 15.65L121.67 15.65Q123.65 15.65 125.12 16.52Q126.59 17.38 127.41 19.00Q128.23 20.61 128.23 22.85L128.23 22.85L128.23 35L123.10 35L123.10 23.74Q123.10 21.96 122.19 20.95Q121.28 19.94 119.65 19.94L119.65 19.94Q118.58 19.94 117.73 20.41Q116.88 20.88 116.41 21.77Q115.94 22.66 115.94 23.94ZM135.46 35L130.33 35L130.33 15.89L135.46 15.89L135.46 35ZM132.89 13.40L132.89 13.40Q131.73 13.40 130.91 12.63Q130.09 11.86 130.09 10.77L130.09 10.77Q130.09 9.67 130.91 8.90Q131.73 8.13 132.89 8.13L132.89 8.13Q134.06 8.13 134.89 8.90Q135.71 9.66 135.71 10.77L135.71 10.77Q135.71 11.86 134.89 12.63Q134.06 13.40 132.89 13.40ZM144.12 35.24L144.12 35.24Q142.14 35.24 140.65 34.38Q139.16 33.51 138.35 31.90Q137.54 30.28 137.54 28.04L137.54 28.04L137.54 15.89L142.67 15.89L142.67 27.16Q142.67 28.93 143.59 29.94Q144.51 30.95 146.12 30.95L146.12 30.95Q147.21 30.95 148.05 30.48Q148.89 30.01 149.36 29.11Q149.83 28.22 149.83 26.95L149.83 26.95L149.83 15.89L154.96 15.89L154.96 35L150.12 35L150.05 30.23L150.34 30.23Q149.59 32.64 148.04 33.94Q146.50 35.24 144.12 35.24ZM164.64 35.38L164.64 35.38Q162.34 35.38 160.56 34.72Q158.78 34.06 157.65 32.80Q156.53 31.55 156.20 29.77L156.20 29.77L160.97 28.95Q161.35 30.28 162.29 30.95Q163.23 31.62 164.80 31.62L164.80 31.62Q166.25 31.62 167.10 31.06Q167.96 30.51 167.96 29.65L167.96 29.65Q167.96 28.90 167.35 28.42Q166.75 27.94 165.50 27.69L165.50 27.69L162.20 27.00Q159.43 26.44 158.06 25.08Q156.70 23.72 156.70 21.58L156.70 21.58Q156.70 19.74 157.71 18.41Q158.71 17.09 160.51 16.37Q162.30 15.65 164.73 15.65L164.73 15.65Q166.98 15.65 168.64 16.28Q170.30 16.90 171.33 18.05Q172.35 19.19 172.69 20.75L172.69 20.75L168.15 21.55Q167.86 20.58 167.03 19.95Q166.20 19.33 164.80 19.33L164.80 19.33Q163.53 19.33 162.68 19.86Q161.82 20.39 161.82 21.26L161.82 21.26Q161.82 21.99 162.38 22.49Q162.93 22.99 164.28 23.26L164.28 23.26L167.72 23.94Q170.49 24.51 171.84 25.78Q173.19 27.05 173.19 29.10L173.19 29.10Q173.19 30.98 172.09 32.39Q171.00 33.80 169.08 34.59Q167.16 35.38 164.64 35.38Z"/></g>
                
            </svg>
        